<svg xmlns="http://www.w3.org/2000/svg" fill="#fff" width="1209.681" height="1023.301" viewBox="0 0 1209.681 1023.301">
  <g>
    <path d="M158.316,470.173h-9.761c-30.912-.009-61.832.5-92.73-.2C32.676,469.446,15.567,457.6,5.5,434.908a63.521,63.521,0,0,1,24.077-79.529C69.711,330.321,109.648,304.9,149.654,279.6q90.468-57.212,180.9-114.49c46.993-29.832,93.859-59.9,140.817-89.8Q523.1,42.363,574.94,9.6c22.886-14.422,45.172-11.925,67.084,3.03C656.358,22.41,671,31.677,685.553,41.089c19.262,12.454,28.852,31.31,28.354,54.678-.531,24.949-16.084,47.48-40.158,55.582-19.561,6.583-37.116,1.759-52.444-10.461-12.134-9.672-20.968-6.938-32.659.736-44.657,29.3-89.973,57.459-135.05,86.023q-91.286,57.842-182.57,115.687c-1.669,1.058-3.076,2.6-5.78,4.922H944.315q.332-.563.659-1.126c-6.547-4.274-13.15-8.457-19.631-12.844-11.683-7.91-24.927-14.15-34.624-24.254-31.028-32.321-22.706-84.906,19.955-102.337,17.449-7.13,34.165-3.228,49.95,6.879,33.135,21.212,66.455,42.1,99.554,63.377q63.85,41.041,127.434,82.55c15.749,10.3,26.1,40.639,20.561,61.382-5.448,20.408-15.42,35.28-33.539,43.386a51.5,51.5,0,0,1-19.661,4.78c-31.133.494-62.281.222-93.422.225h-8.6c0,7.68,0,14.7,0,21.712q0,30.457-.008,60.915a54.589,54.589,0,0,1-.437,6.621c-2.713,21.786-4.33,43.82-8.529,65.278-4.078,20.819-10.2,41.266-16.538,61.476-8.707,27.757-22.493,52.824-37.985,76.9-19.337,30.057-42.965,55.836-68.476,79.813a17.7,17.7,0,0,0-1.273,1.664c1.849,2.761,3.555,5.912,5.792,8.552,18.772,22.14,37.758,44.077,56.436,66.309,12,14.278,20.248,30.607,22.715,49.977,2.317,18.177-13.244,44.8-29.525,50.787-17.961,6.61-34.519,1.647-49.892-7.629A109.092,109.092,0,0,1,899.672,991.1c-23.2-26.7-45.626-54.19-68.2-81.509-3.25-3.935-5.509-4.934-10.86-2.891-20.946,7.993-42.113,15.5-63.56,21.765-19.545,5.711-39.461,10.183-59.407,14.065-12.375,2.409-25.087,3.293-37.686,3.819-28.969,1.209-58,3.092-86.936,2.2-23.039-.715-46.08-4.431-68.936-8.135-19.365-3.136-38.793-6.92-57.607-12.631A440.806,440.806,0,0,1,358.656,890.7c-42.844-24.009-81.083-54.237-113.161-92.887-27.485-33.11-49.427-70.108-62.79-112.225-7.068-22.276-13.676-44.855-18.465-67.779-3.773-18.061-5.086-36.811-6.326-55.343-1.44-21.544-1.927-43.179-2.165-64.781-.1-8.7,1.567-17.429,2.566-27.515m775.365,0H575.341q-144.979,0-289.961,0c-2.309,0-4.728-.423-6.882.2-1.561.452-3.743,2.131-3.97,3.565a183.894,183.894,0,0,0-2.583,22.608c-.952,28.99.006,57.8,4.49,86.591a368,368,0,0,0,16.829,66.735A267.651,267.651,0,0,0,353.228,746.9c41.625,43.226,91.523,71.471,147.732,86.144,22.582,5.9,45.9,10.627,69.038,11.546,33.046,1.312,66.239-1.212,99.355-2.474,6.583-.251,13.169-1.916,19.647-3.441,10.226-2.4,20.395-5.105,30.527-7.931,11.118-3.1,22.167-6.477,34.19-10.009-3.089-4.023-5.4-7.3-7.967-10.334-18.4-21.789-37.193-43.211-55.188-65.375-14.385-17.721-18.974-37.958-12.577-61.275,10.279-37.473,50.291-48.171,77.936-34.2,18.233,9.211,29.137,26.708,41.57,42.416Q821.9,722.8,846.02,753.916c3.15,4.061,5.758,4.026,8.77.142,5.077-6.539,10.121-13.107,15.306-19.548,38-47.219,57.569-102.973,65.24-163.8,2.536-20.128,2.81-40.7,2.688-61.051-.078-13.027-2.771-26.037-4.344-39.489" transform="translate(0 0)" />
    <path d="M326.757,167.071c-32.08,2.087-56.644-30.468-56.45-61.408.2-32.389,25.1-60.578,57.2-60.808,29.043-.21,56.547,28.626,56.289,61.491-.23,29.022-25.286,63.643-57.037,60.726" transform="translate(478.006 87.735)"/>
  </g>
</svg>
