<svg xmlns="http://www.w3.org/2000/svg" xml:space="preserve" viewBox="0 0 180.03 28.17"><style>.st0{fill:#fff}</style><path d="M43.52 9.51c0-2.4-.82-4.31-2.45-5.68-1.64-1.41-3.79-2.12-6.39-2.12-2.59 0-4.74.71-6.38 2.12-1.63 1.37-2.45 3.28-2.45 5.69 0 2.43.8 4.3 2.45 5.71 1.65 1.39 3.8 2.09 6.38 2.09 2.59 0 4.74-.71 6.39-2.1 1.64-1.41 2.45-3.28 2.45-5.71zm-4.18 4.34c-1.23 1.06-2.76 1.57-4.66 1.57-1.89 0-3.46-.53-4.68-1.57-1.23-1.06-1.86-2.52-1.86-4.34 0-1.83.62-3.29 1.86-4.34 1.21-1.04 2.79-1.57 4.68-1.57 1.9 0 3.43.51 4.66 1.57 1.25 1.07 1.88 2.53 1.88 4.34s-.64 3.27-1.88 4.34zM62.89 1.71c-.72 0-1.11.4-1.11 1.12v10.95L51.46 2.7c-.71-.78-1.08-1-1.71-1-.72 0-1.12.4-1.12 1.12V16.2c0 .72.39 1.12 1.12 1.12.72 0 1.11-.4 1.11-1.12V5.25l10.32 11.07c.69.75 1.1.99 1.71.99.72 0 1.12-.4 1.12-1.12V2.82c0-.72-.4-1.11-1.12-1.11zM82.58 1.94H72.44c-1.52 0-2.07.27-2.27.44-.15.12-.47.54-.47 2.18V16.2c0 .72.4 1.12 1.12 1.12.71 0 1.11-.4 1.11-1.12v-5.8h8.11c.99 0 1.12-.53 1.12-1s-.13-1-1.12-1h-8.11V5.13c0-.47 0-1.19.96-1.19h9.68c.99 0 1.12-.54 1.12-1 .01-.47-.12-1-1.11-1zM105.7 2.82c0-.72-.4-1.12-1.12-1.12-.72 0-1.12.4-1.12 1.12v6.69c0 3.82-2.1 5.92-5.91 5.92s-5.92-2.1-5.92-5.92V2.82c0-.72-.39-1.12-1.11-1.12-.72 0-1.12.4-1.12 1.12v6.69c0 2.46.73 4.39 2.18 5.75 1.45 1.36 3.46 2.06 5.97 2.06 2.52 0 4.53-.69 5.97-2.06 1.44-1.36 2.18-3.29 2.18-5.75V2.82zM124.52 13.87c-1.33 1.03-2.97 1.56-4.87 1.56-1.89 0-3.46-.53-4.68-1.57-1.23-1.06-1.86-2.52-1.86-4.34 0-1.83.63-3.29 1.86-4.34 1.21-1.04 2.79-1.57 4.68-1.57 1.83 0 3.46.52 4.86 1.55.74.55 1.67.33 1.9-.31.15-.42-.06-.9-.56-1.29-1.5-1.22-3.58-1.83-6.2-1.83-2.59 0-4.74.71-6.38 2.12-1.63 1.37-2.45 3.28-2.45 5.69 0 2.43.8 4.3 2.45 5.71 1.65 1.39 3.8 2.09 6.38 2.09 2.62 0 4.7-.61 6.19-1.83.51-.43.72-.93.55-1.38-.23-.67-1.13-.84-1.87-.26zM158.7 2.82c0-.72-.4-1.12-1.12-1.12-.72 0-1.11.4-1.11 1.12v6.69c0 3.82-2.1 5.92-5.92 5.92-3.81 0-5.92-2.1-5.92-5.92V2.82c0-.72-.39-1.12-1.12-1.12-.71 0-1.11.4-1.11 1.12v6.69c0 2.46.73 4.39 2.17 5.75 1.45 1.36 3.46 2.06 5.97 2.06s4.53-.69 5.98-2.06c1.44-1.35 2.17-3.29 2.17-5.75V2.82zM179.23 10.09c-.37-.52-1.35-.99-2.07-1.23-.33-.13-.8-.24-1.43-.32a12.4 12.4 0 0 0-1.51-.2l-1.62-.11c-.13-.01-.24-.02-.34-.02-.15-.01-.28-.02-.38-.03-.32-.02-.8-.04-1.38-.04-.28-.01-.51-.02-.72-.02-.28-.01-.51-.01-.7-.03-.32-.02-.63-.08-.97-.15l-.12-.02c-.95-.21-1.42-.76-1.42-1.62 0-1.17.98-2.57 5.66-2.57 2.16 0 3.85.47 5.16 1.44.3.23.65.34 1.04.34.44 0 .91-.24.91-.91 0-.23-.06-.58-.62-1.05-1.49-1.21-3.67-1.82-6.49-1.82-3.57 0-7.82.79-7.82 4.55 0 1.21.46 2.01.65 2.3.29.42 1.1.84 1.73 1.05.29.11.72.19 1.28.26l.56.07c.34.04.62.08.84.09l.33.02c.34.02.77.05 1.29.07l.43.02c.2.01.35.02.48.03l2.17.07c.76.03 1.6.09 2.09.26.5.16 1.7.53 1.7 1.92 0 1.92-2 2.9-5.94 2.9-1.04 0-2.11-.12-3.15-.36-1.1-.28-1.92-.63-2.54-1.07-.34-.25-.66-.37-.95-.37-.47 0-.96.36-.96.98 0 .37.19.7.57.99.73.58 1.75 1.04 3.02 1.36 1.31.31 2.66.47 4 .47 2.99 0 8.01-.61 8.01-4.67.01-.97-.28-1.9-.79-2.58zM134.43 1.94c-.72 0-1.12.4-1.12 1.11v12.91c0 .72.4 1.12 1.12 1.12.72 0 1.12-.4 1.12-1.12V3.05c0-.71-.4-1.11-1.12-1.11zM23.23 6.5 18.8 3.89c-.52-.31-1.2-.13-1.51.39-.31.52-.13 1.2.39 1.51l.95.56H5.14l6.75-3.97.46.27c.52.31 1.2.13 1.51-.39.31-.52.13-1.2-.39-1.51l-1.01-.6c-.35-.2-.77-.2-1.12 0L.54 6.5c-.43.25-.63.76-.5 1.24s.56.81 1.06.81h2c-.03.3-.04.62-.04.94 0 1.11.18 2.1.52 2.99v.01-.01c.4 1.05 1.04 1.95 1.93 2.71 1.65 1.39 3.79 2.09 6.38 2.09 1.43 0 2.79-.24 4.04-.71l.31-.12L17.65 18c.38.43.78.62 1.24.62.39 0 .81-.33.81-.95 0-.31-.17-.64-.52-1.02l-1.14-1.27.36-.33c1.55-1.42 2.3-3.23 2.3-5.55 0-.32-.02-.64-.05-.94h2c.5 0 .93-.33 1.06-.81.15-.49-.05-1-.48-1.25zm-4.81 2.99c0 1.54-.45 2.85-1.34 3.9l-.38.44-1.37-1.62c-.3-.33-.61-.5-.94-.5-.79 0-1.14.57-1.14 1.14 0 .24.14.52.4.82l1.17 1.27-.79.21c-.62.17-1.33.25-2.16.25-1.89 0-3.46-.53-4.68-1.57-1.23-1.05-1.86-2.51-1.86-4.34 0-.33.02-.64.06-.94h12.94c.07.3.09.62.09.94z" class="st0"/><path d="M15.81 4.63c.61 0 1.11-.51 1.11-1.11 0-.61-.51-1.11-1.11-1.11-.61 0-1.11.51-1.11 1.11 0 .61.5 1.11 1.11 1.11z" class="st0"/></svg>