<svg xmlns="http://www.w3.org/2000/svg" viewBox="0 0 23.8 18.6" >
<style type="text/css">
	.st0{fill:#3d3d3d;}
</style>
<g>
	<g>
		<g>
			<path class="st0" d="M23.2,6.5l-4.4-2.6c-0.5-0.3-1.2-0.1-1.5,0.4s-0.1,1.2,0.4,1.5l1,0.6H5.1l6.7-4l0.5,0.3
				c0.5,0.3,1.2,0.1,1.5-0.4s0.1-1.2-0.4-1.5l-1-0.6c-0.4-0.2-0.8-0.2-1.1,0L0.5,6.5C0.1,6.8-0.1,7.3,0,7.7s0.6,0.8,1.1,0.8h2
				c0,0.3,0,0.6,0,0.9c0,1.1,0.2,2.1,0.5,3v0v0c0.4,1.1,1,1.9,1.9,2.7c1.7,1.4,3.8,2.1,6.4,2.1c1.4,0,2.8-0.2,4-0.7l0.3-0.1l1.4,1.6
				c0.4,0.4,0.8,0.6,1.2,0.6c0.4,0,0.8-0.3,0.8-1c0-0.3-0.2-0.6-0.5-1L18,15.4l0.4-0.3c1.5-1.4,2.3-3.2,2.3-5.6c0-0.3,0-0.6,0-0.9h2
				c0.5,0,0.9-0.3,1.1-0.8C23.9,7.3,23.7,6.8,23.2,6.5z M18.4,9.5c0,1.5-0.5,2.9-1.3,3.9l-0.4,0.4l-1.4-1.6
				c-0.3-0.3-0.6-0.5-0.9-0.5c-0.8,0-1.1,0.6-1.1,1.1c0,0.2,0.1,0.5,0.4,0.8l1.2,1.3L14,15.1c-0.6,0.2-1.3,0.2-2.2,0.2
				c-1.9,0-3.5-0.5-4.7-1.6C6,12.8,5.3,11.3,5.3,9.5c0-0.3,0-0.6,0.1-0.9h12.9C18.4,8.9,18.4,9.2,18.4,9.5z"/>
			<path class="st0" d="M15.8,4.6c0.6,0,1.1-0.5,1.1-1.1c0-0.6-0.5-1.1-1.1-1.1c-0.6,0-1.1,0.5-1.1,1.1C14.7,4.1,15.2,4.6,15.8,4.6z
				"/>
		</g>
	</g>
</g>
</svg>
